<svg
  xmlns="http://www.w3.org/2000/svg"
  xmlns:xlink="http://www.w3.org/1999/xlink"
  xml:space="preserve"
  version="1.1"
  style="shape-rendering:geometricPrecision;text-rendering:geometricPrecision;image-rendering:optimizeQuality;"
  viewBox="0 0 397 411.25"
  x="0px"
  y="0px"
  fill-rule="evenodd"
  clip-rule="evenodd">
  <defs>
    <style type="text/css">

      .fil0 {
        fill: white;
        fill-rule: nonzero;
      }
    </style>
  </defs>
  <g><path
    class="fil0"
    d="M228 312l0 -83 -59 0 0 83 59 0zm-18 -309l175 101c11,6 15,21 9,32 -7,12 -22,16 -33,9l-15 -9 0 185c0,5 -4,8 -9,8l-277 0c-5,0 -9,-4 -9,-8l0 -185 -15 9c-13,7 -27,2 -34,-11 -6,-13 1,-25 12,-31l172 -100c8,-4 17,-4 24,0zm119 123l-131 -75 -130 75 0 186 84 0 0 -91c0,-5 4,-9 9,-9l75 0c5,0 9,4 9,8l0 92 84 0 0 -186zm-134 -108l-175 101c-3,2 -4,6 -2,9 2,3 6,4 9,2l171 -98 171 98c3,2 8,1 10,-2 2,-3 1,-7 -3,-10l-174 -100c-2,-1 -5,-1 -7,0z"/></g>
  <text x="0" y="344" fill="#ffffff" font-size="5px" font-weight="bold" font-family="'Helvetica Neue', Helvetica, Arial-Unicode, Arial, Sans-serif">Created by Taqiyyah</text>
  <text x="0" y="349" fill="#ffffff" font-size="5px" font-weight="bold" font-family="'Helvetica Neue', Helvetica, Arial-Unicode, Arial, Sans-serif">from the Noun Project</text>
</svg>
